<svg version="1.1" id="Layer_1" xmlns="http://www.w3.org/2000/svg" xmlns:xlink="http://www.w3.org/1999/xlink" x="0px" y="0px"
	 width="100%" viewBox="0 0 1024 1024" xml:space="preserve">
<path stroke="none" 
	d=" M547.998291,729.344910 
	C539.999207,729.343689 532.498352,729.254883 525.001160,729.381653 
	C521.781494,729.435974 520.396606,728.179749 520.650696,724.968201 
	C520.768555,723.478271 520.651978,721.970215 520.651978,720.470398 
	C520.654175,578.981934 520.657227,437.493439 520.661926,296.004974 
	C520.661926,294.505219 520.723145,293.004425 520.684570,291.505951 
	C520.622314,289.085602 521.602051,287.748352 524.179321,287.755127 
	C534.511292,287.782257 544.843384,287.749115 555.175293,287.788483 
	C558.686218,287.801849 560.416687,290.417328 562.048279,292.938995 
	C568.607849,303.076752 573.098694,314.232635 577.349976,325.433929 
	C599.274536,383.200714 618.690674,441.860474 639.242737,500.116119 
	C657.523865,551.934753 675.545654,603.844910 693.701965,655.707581 
	C694.738647,658.668701 695.546936,661.744690 697.824097,665.066284 
	C698.856873,662.532959 699.795715,660.493103 700.533203,658.382751 
	C722.889771,594.404053 745.228943,530.419189 767.565613,466.433472 
	C787.707275,408.735474 807.870422,351.044922 827.921143,293.315338 
	C829.318604,289.291809 831.271057,287.491882 835.788818,287.634308 
	C846.277405,287.964935 856.784973,287.821503 867.282227,287.677216 
	C870.892517,287.627594 872.454956,288.890259 872.294434,292.605316 
	C872.100464,297.096436 872.253418,301.602509 872.253357,306.102112 
	C872.252014,444.257507 872.250610,582.412903 872.247620,720.568298 
	C872.247559,722.234680 872.178528,723.902588 872.229797,725.567078 
	C872.315186,728.339722 870.981812,729.376892 868.265625,729.361206 
	C856.767029,729.294678 845.267395,729.281860 833.769104,729.375488 
	C830.732056,729.400208 829.620667,728.153687 829.700623,725.199036 
	C830.246033,705.048767 830.674805,684.895264 831.235168,664.745422 
	C831.619446,650.927551 832.275024,637.116699 832.600220,623.297791 
	C833.454651,586.992615 834.133362,550.683167 834.997131,514.378235 
	C835.896423,476.576080 836.781067,438.772369 837.999023,400.979889 
	C838.351501,390.041443 838.641907,379.116516 838.152771,368.041016 
	C832.850647,383.228973 827.552734,398.418365 822.245911,413.604675 
	C786.155701,516.881348 750.033752,620.146851 714.072021,723.468262 
	C712.487610,728.020264 710.351013,730.020996 705.540466,729.413696 
	C702.751770,729.061646 699.838440,729.029297 697.058044,729.411682 
	C690.440430,730.321777 686.445618,727.085266 683.240662,721.791077 
	C674.290649,707.006897 668.565308,690.809143 662.469543,674.784912 
	C647.312073,634.940186 632.313599,595.035095 617.214111,555.168274 
	C601.052185,512.496338 584.849792,469.839752 568.653931,427.180725 
	C568.016235,425.501007 567.263794,423.864838 566.329346,421.650330 
	C564.721680,423.961426 565.231384,425.964111 565.230957,427.800842 
	C565.207825,525.126160 565.216614,622.451416 565.221313,719.776733 
	C565.221375,721.276611 565.087524,722.788574 565.231750,724.273987 
	C565.615417,728.226135 563.861938,729.646667 559.990051,729.398804 
	C556.173889,729.154419 552.329834,729.344971 547.998291,729.344910 z"/>
<path stroke="none" 
	d="M160.654282,519.999878 
	C160.672897,500.836121 160.217438,482.157440 160.802673,463.511475 
	C162.335815,414.666046 178.134567,371.609131 213.647018,336.859192 
	C234.118271,316.827545 259.308563,305.693420 286.316040,297.649719 
	C306.059814,291.769409 326.217651,289.661560 346.551331,290.872803 
	C416.797180,295.057312 480.376678,335.034302 503.823639,402.721954 
	C509.977173,420.486237 513.010803,438.919250 513.057129,457.637970 
	C513.275879,546.123840 513.143127,634.610596 513.257751,723.096802 
	C513.263794,727.765015 512.001709,729.589600 507.064270,729.438477 
	C496.409271,729.112427 485.737274,729.352600 475.072235,729.339966 
	C468.682922,729.332397 468.658783,729.314453 468.658356,722.555420 
	C468.654877,664.730896 468.661194,606.906433 468.663239,549.081909 
	C468.663361,545.249207 468.570587,541.414307 468.672607,537.584534 
	C468.751404,534.627563 467.503815,533.243347 464.526489,533.371643 
	C463.029999,533.436218 461.527618,533.356506 460.027924,533.356567 
	C377.873810,533.362244 295.719696,533.368774 213.565567,533.377747 
	C206.257004,533.378540 206.254700,533.386536 206.254669,540.902466 
	C206.254425,601.393188 206.257019,661.883972 206.252914,722.374695 
	C206.252441,729.325073 206.235809,729.342102 199.466019,729.351929 
	C188.634354,729.367676 177.793839,729.100586 166.974854,729.471985 
	C161.848068,729.647949 160.547272,727.955200 160.558350,722.967468 
	C160.708298,655.478577 160.656433,587.989197 160.654282,519.999878 M418.804688,359.731781 
	C387.616394,339.662384 353.847229,331.473846 316.896027,337.112305 
	C268.509888,344.495636 234.998489,370.986084 215.812119,415.682190 
	C206.573608,437.204041 204.622269,460.047058 205.265930,483.223511 
	C205.474670,490.739136 205.312332,490.753662 212.989365,490.754242 
	C293.276886,490.760193 373.564392,490.762787 453.851898,490.765594 
	C457.349884,490.765717 460.853485,490.633881 464.344208,490.791199 
	C467.607880,490.938293 468.749695,489.558014 468.697418,486.356445 
	C468.564148,478.196686 468.594391,470.032501 468.679230,461.871338 
	C468.868958,443.622040 465.595490,426.024902 457.760101,409.545197 
	C448.623291,390.328156 437.947845,372.130859 418.804688,359.731781 z"/>
	<style>
        path { fill: #000; }
        @media (prefers-color-scheme: dark) {
            path { fill: #FFF; }
        }
    </style>
</svg>